<svg width="70" height="70" viewBox="0 0 70 70" fill="none" xmlns="http://www.w3.org/2000/svg">
<circle cx="35" cy="35" r="35" fill="#EEEEEE"/>
<mask id="mask0_3_77932" style="mask-type:alpha" maskUnits="userSpaceOnUse" x="15" y="15" width="40" height="40">
<rect x="15" y="15" width="40" height="40" fill="#D9D9D9"/>
</mask>
<g mask="url(#mask0_3_77932)">
<path d="M22.7778 50C22.0278 50 21.3773 49.7245 20.8264 49.1736C20.2755 48.6227 20 47.9722 20 47.2222V22.7778C20 22.0278 20.2755 21.3773 20.8264 20.8264C21.3773 20.2755 22.0278 20 22.7778 20H47.2222C47.9722 20 48.6227 20.2755 49.1736 20.8264C49.7245 21.3773 50 22.0278 50 22.7778V47.2222C50 47.9722 49.7245 48.6227 49.1736 49.1736C48.6227 49.7245 47.9722 50 47.2222 50H22.7778ZM24.5278 36.5973L31.5278 29.5972L38.4722 36.5417L45.4445 29.5695L47.2222 31.3472V22.7778H22.7778V34.8473L24.5278 36.5973ZM22.7778 47.2222H47.2222V35.2778L45.4445 33.5L38.4722 40.4722L31.5278 33.5278L24.5278 40.5278L22.7778 38.7778V47.2222ZM22.7778 47.2222V35.2778V38.0555V22.7778V47.2222Z" fill="#2E108E"/>
</g>
</svg>
